<?xml version="1.0" encoding="UTF-8" standalone="no"?>
<svg
   width="802.37878"
   height="699.98724"
   xml:space="preserve"
   overflow="hidden"
   version="1.1"
   id="svg6"
   sodipodi:docname="logo-light.svg"
   inkscape:version="1.4.2 (ebf0e940, 2025-05-08)"
   xmlns:inkscape="http://www.inkscape.org/namespaces/inkscape"
   xmlns:sodipodi="http://sodipodi.sourceforge.net/DTD/sodipodi-0.dtd"
   xmlns="http://www.w3.org/2000/svg"
   xmlns:svg="http://www.w3.org/2000/svg"><sodipodi:namedview
     id="namedview6"
     pagecolor="#ffffff"
     bordercolor="#000000"
     borderopacity="0.25"
     inkscape:showpageshadow="2"
     inkscape:pageopacity="0.0"
     inkscape:pagecheckerboard="0"
     inkscape:deskcolor="#d1d1d1"
     inkscape:zoom="0.38353866"
     inkscape:cx="293.32115"
     inkscape:cy="301.14305"
     inkscape:window-width="1416"
     inkscape:window-height="680"
     inkscape:window-x="134"
     inkscape:window-y="137"
     inkscape:window-maximized="0"
     inkscape:current-layer="svg6"><inkscape:page
       x="0"
       y="0"
       width="802.37878"
       height="699.98724"
       id="page6"
       margin="50"
       bleed="0" /></sodipodi:namedview><defs
     id="defs3"><linearGradient
       x1="1681"
       y1="1738"
       x2="2252"
       y2="943"
       gradientUnits="userSpaceOnUse"
       spreadMethod="pad"
       id="stroke0"><stop
         offset="0"
         stop-color="#001a4d"
         stop-opacity="1"
         id="stop1" /><stop
         offset="0.5"
         stop-color="#0052cc"
         stop-opacity="1"
         id="stop2" /><stop
         offset="1"
         stop-color="#00b4d8"
         stop-opacity="1"
         id="stop3" /></linearGradient></defs><g
     transform="translate(-1565.3712,-990.76273)"
     id="g6"><g
       id="g5"><path
         d="m 2059.71,1342.5 c -12.03,0 -21.58,2.68 -28.67,8.05 -7.08,5.37 -12.17,12.49 -15.24,21.36 -3.08,8.88 -4.62,18.47 -4.62,28.77 0,10.59 1.5,20.43 4.51,29.52 3.01,9.09 7.91,16.35 14.71,21.79 6.8,5.44 15.92,8.16 27.38,8.16 12.31,0 22.15,-2.72 29.52,-8.16 7.37,-5.44 12.67,-12.66 15.89,-21.68 3.22,-9.02 4.83,-18.89 4.83,-29.63 0,-10.3 -1.57,-19.89 -4.72,-28.77 -3.15,-8.87 -8.27,-15.99 -15.35,-21.36 -7.09,-5.37 -16.5,-8.05 -28.24,-8.05 z m 3.22,-112.5 c 26.34,0 50.1,4.08 71.29,12.24 21.19,8.16 39.4,19.68 54.65,34.56 15.24,14.89 26.91,32.35 35,52.39 8.09,20.04 12.13,41.93 12.13,65.69 0,22.48 -3.26,40.51 -9.77,54.11 -6.51,13.59 -15.17,23.43 -25.98,29.52 -10.81,6.08 -22.66,9.12 -35.54,9.12 -13.74,0 -25.16,-2.86 -34.25,-8.59 -9.09,-5.72 -15.14,-14.45 -18.14,-26.19 -4.58,10.02 -12.06,18.32 -22.44,24.91 -10.38,6.58 -22.66,9.87 -36.83,9.87 -16.03,0 -29.7,-3.61 -41.01,-10.84 -11.31,-7.23 -19.94,-17.32 -25.88,-30.27 -5.94,-12.96 -8.91,-28.09 -8.91,-45.41 0,-17.32 3.15,-32.42 9.45,-45.3 6.3,-12.88 15.28,-22.87 26.95,-29.95 11.67,-7.08 25.44,-10.63 41.33,-10.63 12.89,0 23.91,2.65 33.07,7.95 9.16,5.29 15.82,11.52 19.97,18.67 l 1.51,-24.04 h 32.63 v 115.72 c 0,9.87 2.15,16.89 6.45,21.04 4.29,4.15 10.59,6.22 18.89,6.22 9.02,0 16.39,-2.75 22.12,-8.26 5.72,-5.51 9.98,-13.2 12.78,-23.08 2.79,-9.88 4.18,-21.26 4.18,-34.14 0,-28.19 -6.05,-52.7 -18.14,-73.53 -12.1,-20.82 -28.95,-37 -50.57,-48.52 -21.62,-11.52 -46.6,-17.28 -74.94,-17.28 -28.34,0 -53.36,5.83 -75.05,17.5 -21.69,11.66 -38.65,28.23 -50.89,49.7 -12.24,21.47 -18.36,46.87 -18.36,76.21 0,30.63 6.3,56.65 18.9,78.04 12.6,21.4 29.85,37.68 51.75,48.85 21.9,11.16 46.88,16.74 74.94,16.74 14.17,0 28.13,-1.39 41.87,-4.18 13.74,-2.8 26.41,-6.62 38.01,-11.49 v 28.34 c -11.46,4.29 -23.91,7.58 -37.37,9.87 -13.45,2.29 -27.19,3.44 -41.22,3.44 -34.79,0 -65.42,-6.91 -91.91,-20.72 -26.48,-13.81 -47.2,-33.42 -62.16,-58.82 -14.96,-25.41 -22.44,-55.43 -22.44,-90.07 0,-25.62 4.29,-48.84 12.88,-69.67 8.59,-20.82 20.72,-38.68 36.4,-53.56 15.68,-14.89 34.07,-26.3 55.19,-34.24 21.11,-7.95 44.26,-11.92 69.46,-11.92 z"
         fill="#000000"
         fill-rule="evenodd"
         fill-opacity="1"
         id="path3" /><path
         d="m 2010.4,1067 v 100.73 l 1.26,-0.01 L 2157.2,1067 v 99.45 l 3.14,-0.03 L 2304,1067 v 101.59 74.11 307.44 c 0,42.45 -34.49,76.86 -77.02,76.86 h -528.52 c -42.54,0 -85.45,-46.19 -63.54,-100.41 l 107.86,-285.57 c 11.8,-39.09 58.08,-71.82 100.62,-71.82 l 20.2,-0.61 z"
         stroke="url(#stroke0)"
         stroke-width="31"
         stroke-linecap="butt"
         stroke-linejoin="miter"
         stroke-miterlimit="8"
         fill="none"
         fill-rule="evenodd"
         id="path4"
         transform="translate(1970, 1349) scale(1.12) translate(-1970, -1349)"
         style="stroke:url(#stroke0)" /><path
         d="M 0,0 109.439,294.643"
         stroke="#000000"
         stroke-width="35"
         stroke-linecap="round"
         stroke-linejoin="miter"
         stroke-miterlimit="8"
         stroke-opacity="1"
         fill="none"
         fill-rule="evenodd"
         transform="matrix(-1,0,0,1,1847.44,1245)"
         id="path5" /></g></g></svg>
